<svg width="32" height="32" viewBox="0 0 32 32" fill="none" xmlns="http://www.w3.org/2000/svg">
<path opacity="0.4" d="M13.3174 23.9733C19.2011 23.9733 23.9707 19.2037 23.9707 13.32C23.9707 7.43632 19.2011 2.66666 13.3174 2.66666C7.43372 2.66666 2.66406 7.43632 2.66406 13.32C2.66406 19.2037 7.43372 23.9733 13.3174 23.9733Z" fill="#1140FF"/>
<path d="M29.2934 21.32C29.2934 25.72 25.7201 29.2933 21.3201 29.2933C18.6001 29.2933 16.2134 27.9333 14.7734 25.8667C20.5868 25.2133 25.2134 20.5867 25.8668 14.7733C27.9334 16.2133 29.2934 18.6 29.2934 21.32Z" fill="#1140FF"/>
<path d="M15.2641 12.9467L12.0641 11.8267C11.7441 11.72 11.6774 11.6933 11.6774 11.2267C11.6774 10.88 11.9174 10.6 12.2241 10.6H14.2241C14.6507 10.6 14.9974 10.9867 14.9974 11.4667C14.9974 12.0133 15.4507 12.4667 15.9974 12.4667C16.5441 12.4667 16.9974 12.0133 16.9974 11.4667C16.9974 9.93333 15.8107 8.67999 14.3307 8.61333V8.54666C14.3307 7.99999 13.8774 7.54666 13.3307 7.54666C12.7841 7.54666 12.3307 7.98666 12.3307 8.54666V8.61333H12.2107C10.8107 8.61333 9.66406 9.78666 9.66406 11.24C9.66406 12.5067 10.2241 13.32 11.3841 13.72L14.5974 14.84C14.9174 14.9467 14.9841 14.9733 14.9841 15.44C14.9841 15.7867 14.7441 16.0667 14.4374 16.0667H12.4374C12.0107 16.0667 11.6641 15.68 11.6641 15.2C11.6641 14.6533 11.2107 14.2 10.6641 14.2C10.1174 14.2 9.66406 14.6533 9.66406 15.2C9.66406 16.7333 10.8507 17.9867 12.3307 18.0533V18.1333C12.3307 18.68 12.7841 19.1333 13.3307 19.1333C13.8774 19.1333 14.3307 18.68 14.3307 18.1333V18.0667H14.4507C15.8507 18.0667 16.9974 16.8933 16.9974 15.44C16.9974 14.1733 16.4241 13.36 15.2641 12.9467Z" fill="#1140FF"/>
</svg>
