<svg width="32" height="32" viewBox="0 0 32 32" fill="none" xmlns="http://www.w3.org/2000/svg">
<path d="M20.5468 24.7867C20.0134 24.7867 19.5734 24.3467 19.5734 23.8133C19.5734 23.28 20.0134 22.84 20.5468 22.84C24.3068 22.84 27.3734 19.7733 27.3734 16.0133C27.3734 12.2533 24.3068 9.18667 20.5468 9.18667C16.7868 9.18667 13.7201 12.2533 13.7201 16.0133C13.7201 16.5467 13.2801 16.9867 12.7468 16.9867C12.2134 16.9867 11.7734 16.5467 11.7734 16.0133C11.7734 11.1733 15.7068 7.22667 20.5601 7.22667C25.4134 7.22667 29.3334 11.16 29.3334 16C29.3334 20.84 25.4001 24.7867 20.5468 24.7867Z" fill="#1140FF"/>
<path opacity="0.4" d="M29.3333 16C29.3333 20.8533 25.4 24.7867 20.5467 24.7867C18.88 24.7867 17.32 24.32 16 23.5067C18.5333 21.9733 20.2267 19.1867 20.2267 16C20.2267 12.8133 18.5333 10.0267 16 8.49333C17.3333 7.69333 18.8933 7.21333 20.5467 7.21333C25.4 7.21333 29.3333 11.1467 29.3333 16Z" fill="#1140FF"/>
<path d="M11.4507 7.21333C11.9841 7.21333 12.4241 7.65333 12.4241 8.18667C12.4241 8.72 11.9841 9.16 11.4507 9.16C7.69073 9.16 4.62406 12.2267 4.62406 15.9867C4.62406 19.7467 7.69073 22.8133 11.4507 22.8133C15.2107 22.8133 18.2774 19.7467 18.2774 15.9867C18.2774 15.4533 18.7174 15.0133 19.2507 15.0133C19.7841 15.0133 20.2241 15.4533 20.2241 15.9867C20.2241 20.8267 16.2907 24.7733 11.4374 24.7733C6.58406 24.7733 2.66406 20.84 2.66406 16C2.66406 11.16 6.5974 7.21333 11.4507 7.21333Z" fill="#1140FF"/>
<path opacity="0.5" d="M20.2241 16C20.2241 19.1867 18.5307 21.9733 15.9974 23.5067C14.6641 24.3067 13.1041 24.7867 11.4507 24.7867C6.5974 24.7867 2.66406 20.8533 2.66406 16C2.66406 11.1467 6.5974 7.21333 11.4507 7.21333C13.1041 7.21333 14.6641 7.69333 15.9974 8.49333C18.5307 10.0267 20.2241 12.8133 20.2241 16Z" fill="#1140FF"/>
</svg>
