<svg width="32" height="32" viewBox="0 0 32 32" fill="none" xmlns="http://www.w3.org/2000/svg">
<path opacity="0.4" d="M27.1481 16.9733C26.6548 16.9733 26.2414 16.6 26.1881 16.1067C25.8681 13.1733 24.2948 10.5333 21.8681 8.85334C21.4281 8.54667 21.3214 7.94667 21.6281 7.50667C21.9348 7.06667 22.5348 6.96001 22.9748 7.26667C25.8681 9.28 27.7348 12.4267 28.1214 15.9067C28.1748 16.44 27.7881 16.92 27.2548 16.9733C27.2148 16.9733 27.1881 16.9733 27.1481 16.9733Z" fill="#1140FF"/>
<path opacity="0.4" d="M4.98835 17.04C4.96169 17.04 4.92169 17.04 4.89502 17.04C4.36169 16.9867 3.97502 16.5067 4.02835 15.9733C4.38835 12.4933 6.22835 9.34667 9.09502 7.32C9.52169 7.01333 10.135 7.12 10.4417 7.54667C10.7484 7.98667 10.6417 8.58667 10.215 8.89334C7.81502 10.6 6.25502 13.24 5.96169 16.16C5.90835 16.6667 5.48169 17.04 4.98835 17.04Z" fill="#1140FF"/>
<path opacity="0.4" d="M21.3182 28.1333C19.6782 28.92 17.9182 29.32 16.0782 29.32C14.1582 29.32 12.3315 28.8933 10.6248 28.0267C10.1448 27.8 9.95818 27.2133 10.1982 26.7333C10.4248 26.2533 11.0115 26.0667 11.4915 26.2933C12.3315 26.72 13.2248 27.0133 14.1315 27.1867C15.3582 27.4267 16.6115 27.44 17.8382 27.2267C18.7448 27.0667 19.6382 26.7867 20.4648 26.3867C20.9582 26.16 21.5448 26.3467 21.7582 26.84C21.9982 27.32 21.8115 27.9067 21.3182 28.1333Z" fill="#1140FF"/>
<path d="M16.0647 2.68C13.998 2.68 12.3047 4.36 12.3047 6.44C12.3047 8.52 13.9847 10.2 16.0647 10.2C18.1447 10.2 19.8247 8.52 19.8247 6.44C19.8247 4.36 18.1447 2.68 16.0647 2.68Z" fill="#1140FF"/>
<path d="M6.73656 18.4933C4.6699 18.4933 2.97656 20.1733 2.97656 22.2533C2.97656 24.3333 4.65656 26.0133 6.73656 26.0133C8.81656 26.0133 10.4966 24.3333 10.4966 22.2533C10.4966 20.1733 8.80323 18.4933 6.73656 18.4933Z" fill="#1140FF"/>
<path d="M25.2678 18.4933C23.2011 18.4933 21.5078 20.1733 21.5078 22.2533C21.5078 24.3333 23.1878 26.0133 25.2678 26.0133C27.3478 26.0133 29.0278 24.3333 29.0278 22.2533C29.0278 20.1733 27.3478 18.4933 25.2678 18.4933Z" fill="#1140FF"/>
</svg>
